<?xml version="1.0" standalone="no"?>
<!DOCTYPE svg PUBLIC "-//W3C//DTD SVG 20010904//EN"
 "http://www.w3.org/TR/2001/REC-SVG-20010904/DTD/svg10.dtd">
<svg version="1.0" xmlns="http://www.w3.org/2000/svg"
 width="366.000000pt" height="366.000000pt" viewBox="0 0 366.000000 366.000000"
 preserveAspectRatio="xMidYMid meet">
<metadata>
Created by potrace 1.11, written by Peter Selinger 2001-2013
</metadata>
<g transform="translate(0.000000,366.000000) scale(0.100000,-0.100000)"
fill="#000000" stroke="none">
<path d="M1680 3158 c-240 -84 -428 -368 -485 -733 -24 -151 -16 -367 19 -517
60 -257 191 -474 349 -577 70 -45 102 -52 110 -21 9 34 -4 60 -37 77 -107 54
-210 171 -281 317 -100 207 -136 459 -100 700 36 238 120 413 263 548 291 274
661 123 821 -334 48 -138 65 -244 65 -408 1 -301 -87 -542 -259 -716 -97 -98
-176 -141 -275 -150 -59 -6 -67 -4 -85 16 -25 27 -24 56 9 578 18 277 28 377
40 406 55 131 61 434 12 577 -21 59 3 44 36 -22 55 -111 80 -348 49 -467 -12
-50 -58 -113 -88 -123 -10 -3 -9 -62 2 -269 18 -318 25 -360 68 -396 58 -49
129 -15 212 100 171 241 186 609 35 889 -31 55 -125 165 -135 156 -2 -3 -2
-29 2 -59 4 -37 14 -62 33 -84 41 -47 86 -133 110 -211 31 -98 39 -285 16
-387 -40 -179 -172 -362 -236 -328 -26 14 -27 19 -41 288 -12 231 -12 232 9
255 38 40 71 129 83 225 27 198 -38 482 -124 546 -54 40 -117 14 -159 -68 -32
-63 -69 -224 -75 -331 -9 -165 22 -302 84 -367 l25 -26 -27 -420 c-29 -462
-29 -474 26 -537 29 -32 35 -35 89 -35 209 0 421 181 530 455 197 491 82 1114
-252 1367 -94 72 -169 100 -278 105 -80 3 -105 0 -160 -19z"/>
<path d="M1591 2764 c-18 -15 -50 -53 -72 -86 -92 -135 -132 -278 -132 -468 0
-185 35 -312 124 -445 49 -72 142 -159 163 -152 6 2 12 19 14 39 3 32 -2 40
-47 77 -169 141 -240 443 -165 701 20 68 56 141 102 204 23 32 38 66 43 99 5
28 7 52 5 54 -2 2 -18 -8 -35 -23z"/>
<path d="M1143 1110 c-41 -16 -63 -68 -63 -143 0 -79 19 -129 56 -146 54 -24
102 -2 90 42 -5 21 -12 26 -38 25 -38 -1 -58 23 -58 68 0 60 15 84 54 84 30 0
34 3 38 31 4 25 1 32 -19 40 -28 11 -31 11 -60 -1z"/>
<path d="M1310 1107 c-76 -38 -82 -229 -9 -281 33 -23 54 -20 91 13 30 27 33
34 36 105 3 46 -1 88 -8 106 -22 54 -68 78 -110 57z m64 -105 c14 -48 -3 -106
-31 -110 -17 -3 -26 3 -33 23 -22 58 -4 128 32 123 15 -2 25 -13 32 -36z"/>
<path d="M2040 1111 c-14 -4 -25 -12 -24 -19 1 -7 2 -21 3 -33 1 -17 6 -20 30
-14 20 4 34 1 45 -10 24 -24 20 -35 -15 -35 -43 0 -65 -15 -78 -52 -14 -40 -5
-91 21 -115 22 -20 112 -23 130 -5 6 6 8 58 6 126 -3 100 -6 118 -23 135 -24
24 -61 32 -95 22z m70 -201 c0 -25 -4 -30 -25 -30 -27 0 -41 20 -31 45 3 8 17
15 31 15 21 0 25 -5 25 -30z"/>
<path d="M1487 1103 c-4 -3 -7 -69 -7 -145 l0 -138 25 0 25 0 0 110 c0 101 2
110 19 110 26 0 31 -18 31 -126 l0 -95 28 3 27 3 0 105 c0 98 1 105 20 105 25
0 33 -29 34 -132 1 -82 1 -83 27 -83 l26 0 -4 124 c-2 105 -6 127 -22 145 -21
23 -75 28 -94 9 -9 -9 -15 -9 -24 0 -13 13 -100 17 -111 5z"/>
<path d="M1797 1103 c-4 -3 -7 -91 -7 -195 l0 -188 25 0 c23 0 25 3 25 51 0
46 2 50 23 49 44 -4 57 0 73 25 41 63 37 194 -8 242 -17 18 -32 23 -73 23 -28
0 -55 -3 -58 -7z m103 -82 c14 -27 13 -94 -3 -115 -7 -10 -22 -17 -33 -14 -16
3 -19 13 -22 76 -3 71 -3 72 22 72 15 0 30 -8 36 -19z"/>
<path d="M2217 1103 c-4 -3 -7 -69 -7 -145 l0 -138 25 0 25 0 0 110 c0 109 0
110 24 110 30 0 36 -20 36 -132 0 -88 0 -88 26 -88 l26 0 -4 124 c-4 151 -12
166 -93 166 -28 0 -55 -3 -58 -7z"/>
<path d="M2394 1098 c2 -7 19 -72 37 -145 27 -109 30 -135 19 -148 -7 -8 -20
-15 -30 -15 -23 0 -37 -49 -18 -61 42 -27 86 7 112 86 21 66 66 255 66 278 0
11 -8 17 -24 17 -27 0 -28 -3 -46 -102 -7 -37 -16 -66 -20 -63 -4 2 -13 33
-19 67 -19 97 -19 98 -51 98 -19 0 -28 -5 -26 -12z"/>
<path d="M1708 621 c-16 -14 -21 -29 -21 -64 0 -55 15 -77 54 -77 27 0 29 3
29 40 0 22 -4 40 -10 40 -5 0 -10 -12 -10 -26 0 -19 -4 -25 -17 -22 -14 2 -18
13 -18 43 0 33 4 40 24 45 14 3 26 10 28 17 7 19 -36 22 -59 4z"/>
<path d="M1470 620 c0 -5 6 -13 14 -17 9 -5 16 -28 18 -63 4 -69 22 -68 26 2
2 33 9 56 18 61 27 15 14 27 -31 27 -25 0 -45 -4 -45 -10z"/>
<path d="M1586 572 c-18 -67 -20 -92 -6 -92 6 0 10 7 10 15 0 9 9 15 25 15 16
0 25 -6 25 -15 0 -8 5 -15 10 -15 14 0 13 21 -7 90 -9 33 -22 60 -28 60 -7 0
-20 -26 -29 -58z m30 -29 c-11 -11 -17 4 -9 23 7 18 8 18 11 1 2 -10 1 -21 -2
-24z"/>
<path d="M1802 558 l3 -73 33 -3 c24 -2 32 1 32 12 0 9 -9 16 -20 16 -18 0
-20 7 -20 60 0 47 -3 60 -15 60 -13 0 -15 -13 -13 -72z"/>
<path d="M1900 555 c0 -43 4 -75 10 -75 6 0 10 32 10 75 0 43 -4 75 -10 75 -6
0 -10 -32 -10 -75z"/>
<path d="M1960 555 c0 -82 17 -103 22 -27 l4 47 22 -47 c13 -27 27 -48 32 -48
6 0 10 34 10 75 0 77 -16 105 -22 38 l-3 -38 -20 38 c-31 60 -45 48 -45 -38z"/>
<path d="M2087 568 c1 -35 2 -69 2 -75 1 -19 71 -17 71 2 0 9 -9 15 -25 15
-31 0 -34 29 -5 37 11 3 20 9 20 14 0 5 -9 9 -20 9 -11 0 -20 7 -20 15 0 8 9
15 20 15 11 0 20 7 20 15 0 10 -10 15 -32 15 l-33 0 2 -62z"/>
</g>
</svg>
